<svg width="144" height="77" viewBox="0 0 144 77" fill="none" xmlns="http://www.w3.org/2000/svg">
<g filter="url(#filter0_dd_112_51)">
<rect x="7" y="7" width="130" height="60" rx="12" fill="#DC2827" shape-rendering="crispEdges"/>
<path d="M55.5689 34V27.4545H58.1513C58.6456 27.4545 59.0675 27.543 59.4169 27.7198C59.7685 27.8945 60.0359 28.1428 60.2191 28.4645C60.4045 28.7841 60.4972 29.1602 60.4972 29.5927C60.4972 30.0273 60.4034 30.4013 60.2159 30.7145C60.0284 31.0256 59.7567 31.2642 59.4009 31.4304C59.0472 31.5966 58.619 31.6797 58.1161 31.6797H56.3871V30.5675H57.8924C58.1566 30.5675 58.3761 30.5312 58.5508 30.4588C58.7255 30.3864 58.8555 30.2777 58.9407 30.1328C59.0281 29.9879 59.0717 29.8079 59.0717 29.5927C59.0717 29.3754 59.0281 29.1921 58.9407 29.043C58.8555 28.8938 58.7244 28.7809 58.5476 28.7042C58.3729 28.6254 58.1523 28.5859 57.886 28.5859H56.9528V34H55.5689ZM59.1037 31.0213L60.7305 34H59.2028L57.6112 31.0213H59.1037ZM67.4901 30.7273C67.4901 31.4411 67.3548 32.0483 67.0842 32.549C66.8157 33.0497 66.4492 33.4322 65.9847 33.6964C65.5224 33.9585 65.0025 34.0895 64.4251 34.0895C63.8434 34.0895 63.3214 33.9574 62.859 33.6932C62.3967 33.429 62.0313 33.0465 61.7628 32.5458C61.4943 32.0451 61.3601 31.4389 61.3601 30.7273C61.3601 30.0135 61.4943 29.4062 61.7628 28.9055C62.0313 28.4048 62.3967 28.0234 62.859 27.7614C63.3214 27.4972 63.8434 27.3651 64.4251 27.3651C65.0025 27.3651 65.5224 27.4972 65.9847 27.7614C66.4492 28.0234 66.8157 28.4048 67.0842 28.9055C67.3548 29.4062 67.4901 30.0135 67.4901 30.7273ZM66.087 30.7273C66.087 30.2649 66.0178 29.875 65.8793 29.5575C65.7429 29.2401 65.5501 28.9993 65.3008 28.8352C65.0515 28.6712 64.7596 28.5891 64.4251 28.5891C64.0906 28.5891 63.7987 28.6712 63.5494 28.8352C63.3001 28.9993 63.1062 29.2401 62.9677 29.5575C62.8313 29.875 62.7631 30.2649 62.7631 30.7273C62.7631 31.1896 62.8313 31.5795 62.9677 31.897C63.1062 32.2145 63.3001 32.4553 63.5494 32.6193C63.7987 32.7834 64.0906 32.8654 64.4251 32.8654C64.7596 32.8654 65.0515 32.7834 65.3008 32.6193C65.5501 32.4553 65.7429 32.2145 65.8793 31.897C66.0178 31.5795 66.087 31.1896 66.087 30.7273ZM72.5582 27.4545H73.942V31.7053C73.942 32.1825 73.828 32.6001 73.6001 32.9581C73.3742 33.3161 73.0578 33.5952 72.6508 33.7955C72.2439 33.9936 71.7698 34.0927 71.2286 34.0927C70.6853 34.0927 70.2101 33.9936 69.8032 33.7955C69.3962 33.5952 69.0798 33.3161 68.854 32.9581C68.6281 32.6001 68.5152 32.1825 68.5152 31.7053V27.4545H69.8991V31.587C69.8991 31.8363 69.9534 32.0579 70.0621 32.2518C70.1729 32.4457 70.3284 32.598 70.5287 32.7088C70.729 32.8196 70.9623 32.875 71.2286 32.875C71.4971 32.875 71.7304 32.8196 71.9285 32.7088C72.1288 32.598 72.2833 32.4457 72.392 32.2518C72.5028 32.0579 72.5582 31.8363 72.5582 31.587V27.4545ZM80.5554 27.4545V34H79.3601L76.5124 29.8803H76.4645V34H75.0806V27.4545H76.2951L79.1204 31.571H79.1779V27.4545H80.5554ZM84.0191 34H81.6988V27.4545H84.0383C84.6966 27.4545 85.2634 27.5856 85.7385 27.8477C86.2137 28.1076 86.5791 28.4815 86.8348 28.9695C87.0926 29.4574 87.2215 30.0412 87.2215 30.7209C87.2215 31.4027 87.0926 31.9886 86.8348 32.4787C86.5791 32.9687 86.2116 33.3448 85.7322 33.6069C85.2549 33.869 84.6839 34 84.0191 34ZM83.0827 32.8143H83.9616C84.3706 32.8143 84.7148 32.7418 84.9939 32.5969C85.2751 32.4499 85.4861 32.223 85.6267 31.9162C85.7694 31.6072 85.8408 31.2088 85.8408 30.7209C85.8408 30.2372 85.7694 29.842 85.6267 29.5352C85.4861 29.2283 85.2762 29.0025 84.9971 28.8576C84.718 28.7127 84.3738 28.6403 83.9648 28.6403H83.0827V32.8143ZM61.3441 42.7461H59.9442C59.9187 42.565 59.8665 42.4041 59.7876 42.2635C59.7088 42.1207 59.6076 41.9993 59.484 41.8991C59.3604 41.799 59.2177 41.7223 59.0558 41.669C58.896 41.6158 58.7223 41.5891 58.5348 41.5891C58.196 41.5891 57.9009 41.6733 57.6495 41.8416C57.3981 42.0078 57.2031 42.2507 57.0646 42.5703C56.9261 42.8878 56.8569 43.2734 56.8569 43.7273C56.8569 44.1939 56.9261 44.5859 57.0646 44.9034C57.2053 45.2209 57.4013 45.4606 57.6527 45.6225C57.9041 45.7844 58.195 45.8654 58.5252 45.8654C58.7106 45.8654 58.8821 45.8409 59.0398 45.7919C59.1996 45.7429 59.3413 45.6715 59.4648 45.5778C59.5884 45.4819 59.6907 45.3658 59.7717 45.2294C59.8548 45.093 59.9123 44.9375 59.9442 44.7628L61.3441 44.7692C61.3079 45.0696 61.2173 45.3594 61.0724 45.6385C60.9297 45.9155 60.7369 46.1637 60.494 46.3832C60.2532 46.6005 59.9656 46.7731 59.631 46.9009C59.2987 47.0266 58.9226 47.0895 58.5028 47.0895C57.919 47.0895 57.397 46.9574 56.9368 46.6932C56.4787 46.429 56.1165 46.0465 55.8501 45.5458C55.5859 45.0451 55.4538 44.4389 55.4538 43.7273C55.4538 43.0135 55.5881 42.4062 55.8565 41.9055C56.125 41.4048 56.4893 41.0234 56.9496 40.7614C57.4098 40.4972 57.9276 40.3651 58.5028 40.3651C58.8821 40.3651 59.2337 40.4183 59.5575 40.5249C59.8835 40.6314 60.1722 40.7869 60.4237 40.9915C60.6751 41.1939 60.8796 41.4421 61.0373 41.7362C61.1971 42.0302 61.2994 42.3668 61.3441 42.7461ZM68.3514 43.7273C68.3514 44.4411 68.2161 45.0483 67.9455 45.549C67.677 46.0497 67.3105 46.4322 66.8461 46.6964C66.3837 46.9585 65.8638 47.0895 65.2864 47.0895C64.7047 47.0895 64.1827 46.9574 63.7203 46.6932C63.258 46.429 62.8926 46.0465 62.6241 45.5458C62.3556 45.0451 62.2214 44.4389 62.2214 43.7273C62.2214 43.0135 62.3556 42.4062 62.6241 41.9055C62.8926 41.4048 63.258 41.0234 63.7203 40.7614C64.1827 40.4972 64.7047 40.3651 65.2864 40.3651C65.8638 40.3651 66.3837 40.4972 66.8461 40.7614C67.3105 41.0234 67.677 41.4048 67.9455 41.9055C68.2161 42.4062 68.3514 43.0135 68.3514 43.7273ZM66.9483 43.7273C66.9483 43.2649 66.8791 42.875 66.7406 42.5575C66.6042 42.2401 66.4114 41.9993 66.1621 41.8352C65.9128 41.6712 65.6209 41.5891 65.2864 41.5891C64.9519 41.5891 64.66 41.6712 64.4107 41.8352C64.1614 41.9993 63.9675 42.2401 63.829 42.5575C63.6926 42.875 63.6245 43.2649 63.6245 43.7273C63.6245 44.1896 63.6926 44.5795 63.829 44.897C63.9675 45.2145 64.1614 45.4553 64.4107 45.6193C64.66 45.7834 64.9519 45.8654 65.2864 45.8654C65.6209 45.8654 65.9128 45.7834 66.1621 45.6193C66.4114 45.4553 66.6042 45.2145 66.7406 44.897C66.8791 44.5795 66.9483 44.1896 66.9483 43.7273ZM74.8513 40.4545V47H73.656L70.8083 42.8803H70.7604V47H69.3765V40.4545H70.591L73.4163 44.571H73.4738V40.4545H74.8513ZM75.7454 41.5955V40.4545H81.1211V41.5955H79.1172V47H77.7493V41.5955H75.7454ZM82.3348 47H80.8518L83.1114 40.4545H84.8948L87.1512 47H85.6682L84.0287 41.9503H83.9775L82.3348 47ZM82.2421 44.4272H85.7449V45.5075H82.2421V44.4272ZM89.3229 40.4545V47H87.939V40.4545H89.3229ZM95.9363 40.4545V47H94.7409L91.8933 42.8803H91.8453V47H90.4615V40.4545H91.676L94.5012 44.571H94.5588V40.4545H95.9363ZM97.0796 47V40.4545H101.49V41.5955H98.4635V43.1552H101.263V44.2962H98.4635V45.859H101.503V47H97.0796ZM102.59 47V40.4545H105.173C105.667 40.4545 106.089 40.543 106.438 40.7198C106.79 40.8945 107.057 41.1428 107.241 41.4645C107.426 41.7841 107.519 42.1602 107.519 42.5927C107.519 43.0273 107.425 43.4013 107.237 43.7145C107.05 44.0256 106.778 44.2642 106.422 44.4304C106.069 44.5966 105.64 44.6797 105.138 44.6797H103.409V43.5675H104.914C105.178 43.5675 105.398 43.5312 105.572 43.4588C105.747 43.3864 105.877 43.2777 105.962 43.1328C106.05 42.9879 106.093 42.8079 106.093 42.5927C106.093 42.3754 106.05 42.1921 105.962 42.043C105.877 41.8938 105.746 41.7809 105.569 41.7042C105.394 41.6254 105.174 41.5859 104.907 41.5859H103.974V47H102.59ZM106.125 44.0213L107.752 47H106.224L104.633 44.0213H106.125ZM112.047 42.337C112.022 42.0792 111.912 41.8789 111.718 41.7362C111.524 41.5934 111.261 41.522 110.929 41.522C110.703 41.522 110.512 41.554 110.357 41.6179C110.201 41.6797 110.082 41.766 109.999 41.8768C109.918 41.9876 109.877 42.1133 109.877 42.2539C109.873 42.3711 109.898 42.4734 109.951 42.5607C110.006 42.6481 110.082 42.7237 110.178 42.7876C110.274 42.8494 110.384 42.9038 110.51 42.9506C110.636 42.9954 110.77 43.0337 110.913 43.0657L111.501 43.2063C111.786 43.2702 112.048 43.3555 112.287 43.462C112.526 43.5685 112.732 43.6996 112.907 43.8551C113.082 44.0107 113.217 44.1939 113.313 44.4048C113.411 44.6158 113.461 44.8576 113.463 45.1303C113.461 45.5309 113.359 45.8782 113.156 46.1722C112.956 46.4641 112.666 46.6911 112.287 46.853C111.91 47.0128 111.455 47.0927 110.922 47.0927C110.394 47.0927 109.934 47.0117 109.542 46.8498C109.152 46.6879 108.847 46.4482 108.628 46.1307C108.41 45.8111 108.296 45.4158 108.286 44.945H109.625C109.64 45.1644 109.703 45.3477 109.813 45.4947C109.926 45.6396 110.077 45.7493 110.264 45.8239C110.454 45.8963 110.668 45.9325 110.906 45.9325C111.141 45.9325 111.344 45.8984 111.517 45.8303C111.692 45.7621 111.827 45.6673 111.923 45.5458C112.019 45.4244 112.067 45.2848 112.067 45.1271C112.067 44.9801 112.023 44.8565 111.936 44.7564C111.85 44.6562 111.725 44.571 111.558 44.5007C111.394 44.4304 111.193 44.3665 110.954 44.3089L110.242 44.13C109.69 43.9957 109.254 43.7859 108.934 43.5004C108.615 43.2148 108.456 42.8303 108.458 42.3466C108.456 41.9503 108.562 41.604 108.775 41.3079C108.99 41.0117 109.285 40.7805 109.66 40.6143C110.035 40.4482 110.461 40.3651 110.938 40.3651C111.424 40.3651 111.848 40.4482 112.21 40.6143C112.575 40.7805 112.858 41.0117 113.061 41.3079C113.263 41.604 113.367 41.9471 113.374 42.337H112.047Z" fill="white"/>
<path d="M25 37C25 34.3478 26.0536 31.8043 27.9289 29.9289C29.8043 28.0536 32.3478 27 35 27C37.6522 27 40.1957 28.0536 42.0711 29.9289C43.9464 31.8043 45 34.3478 45 37C45 39.6522 43.9464 42.1957 42.0711 44.0711C40.1957 45.9464 37.6522 47 35 47C32.3478 47 29.8043 45.9464 27.9289 44.0711C26.0536 42.1957 25 39.6522 25 37ZM35 28.3333C32.7015 28.3333 30.4971 29.2464 28.8717 30.8717C27.2464 32.4971 26.3333 34.7015 26.3333 37C26.3333 39.2985 27.2464 41.5029 28.8717 43.1283C30.4971 44.7536 32.7015 45.6667 35 45.6667C37.2985 45.6667 39.5029 44.7536 41.1283 43.1283C42.7536 41.5029 43.6667 39.2985 43.6667 37C43.6667 34.7015 42.7536 32.4971 41.1283 30.8717C39.5029 29.2464 37.2985 28.3333 35 28.3333Z" fill="white"/>
</g>
<defs>
<filter id="filter0_dd_112_51" x="0.2" y="0" width="143.6" height="76.8" filterUnits="userSpaceOnUse" color-interpolation-filters="sRGB">
<feFlood flood-opacity="0" result="BackgroundImageFix"/>
<feColorMatrix in="SourceAlpha" type="matrix" values="0 0 0 0 0 0 0 0 0 0 0 0 0 0 0 0 0 0 127 0" result="hardAlpha"/>
<feOffset dy="3"/>
<feGaussianBlur stdDeviation="3.4"/>
<feComposite in2="hardAlpha" operator="out"/>
<feColorMatrix type="matrix" values="0 0 0 0 0 0 0 0 0 0 0 0 0 0 0 0 0 0 0.25 0"/>
<feBlend mode="normal" in2="BackgroundImageFix" result="effect1_dropShadow_112_51"/>
<feColorMatrix in="SourceAlpha" type="matrix" values="0 0 0 0 0 0 0 0 0 0 0 0 0 0 0 0 0 0 127 0" result="hardAlpha"/>
<feOffset dy="-3"/>
<feGaussianBlur stdDeviation="2"/>
<feComposite in2="hardAlpha" operator="out"/>
<feColorMatrix type="matrix" values="0 0 0 0 0 0 0 0 0 0 0 0 0 0 0 0 0 0 0.25 0"/>
<feBlend mode="normal" in2="effect1_dropShadow_112_51" result="effect2_dropShadow_112_51"/>
<feBlend mode="normal" in="SourceGraphic" in2="effect2_dropShadow_112_51" result="shape"/>
</filter>
</defs>
</svg>
