<svg width="144" height="77" viewBox="0 0 144 77" fill="none" xmlns="http://www.w3.org/2000/svg">
<g filter="url(#filter0_dd_112_59)">
<rect x="7" y="7" width="130" height="60" rx="12" fill="#DC2827" shape-rendering="crispEdges"/>
<path d="M35.4801 36.0999V27.7799C35.4801 27.5199 35.249 26.9999 34.3245 26.9999C33.4001 26.9999 26.8519 26.9999 23.6933 26.9999C23.4622 26.9999 23 27.2079 23 28.0399C23 28.8719 23 39.7795 23 45.1293C23 45.4995 23.1387 46.24 23.6933 46.24C24.248 46.24 29.8178 46.24 32.3601 46.24" stroke="#FFFEFF"/>
<path d="M33.6975 41.988L33.2962 41.9079C31.3798 41.5253 30.1051 40.0198 30.2757 38.3796L30.7591 33.7399H37.6018L38.0843 38.3786C38.255 40.019 36.9812 41.5252 35.0647 41.9079L34.6624 41.988V45.9929H36.3899C36.6818 45.9929 36.8892 46.1127 37.0061 46.2604H31.3538C31.4707 46.1127 31.6781 45.9929 31.97 45.9929H33.6975V41.988Z" fill="#FDA50F" stroke="white"/>
<rect x="27.68" y="45.2" width="4.16003" height="1.04001" rx="0.520003" fill="#FFFEFF"/>
<path d="M59.1197 29.337C59.0941 29.0792 58.9844 28.8789 58.7905 28.7362C58.5966 28.5934 58.3335 28.522 58.0011 28.522C57.7752 28.522 57.5845 28.554 57.429 28.6179C57.2734 28.6797 57.1541 28.766 57.071 28.8768C56.9901 28.9876 56.9496 29.1133 56.9496 29.2539C56.9453 29.3711 56.9698 29.4734 57.0231 29.5607C57.0785 29.6481 57.1541 29.7237 57.25 29.7876C57.3459 29.8494 57.4567 29.9038 57.5824 29.9506C57.7081 29.9954 57.8423 30.0337 57.9851 30.0657L58.5732 30.2063C58.8587 30.2702 59.1207 30.3555 59.3594 30.462C59.598 30.5685 59.8047 30.6996 59.9794 30.8551C60.1541 31.0107 60.2894 31.1939 60.3853 31.4048C60.4833 31.6158 60.5334 31.8576 60.5355 32.1303C60.5334 32.5309 60.4311 32.8782 60.2287 33.1722C60.0284 33.4641 59.7386 33.6911 59.3594 33.853C58.9822 34.0128 58.5273 34.0927 57.9947 34.0927C57.4663 34.0927 57.006 34.0117 56.614 33.8498C56.2241 33.6879 55.9194 33.4482 55.6999 33.1307C55.4826 32.8111 55.3686 32.4158 55.358 31.945H56.6971C56.712 32.1644 56.7749 32.3477 56.8857 32.4947C56.9986 32.6396 57.1488 32.7493 57.3363 32.8239C57.5259 32.8963 57.7401 32.9325 57.9787 32.9325C58.2131 32.9325 58.4165 32.8984 58.5891 32.8303C58.7638 32.7621 58.8991 32.6673 58.995 32.5458C59.0909 32.4244 59.1388 32.2848 59.1388 32.1271C59.1388 31.9801 59.0952 31.8565 59.0078 31.7564C58.9226 31.6562 58.7969 31.571 58.6307 31.5007C58.4666 31.4304 58.2653 31.3665 58.0266 31.3089L57.3139 31.13C56.7621 30.9957 56.3263 30.7859 56.0067 30.5004C55.6871 30.2148 55.5284 29.8303 55.5305 29.3466C55.5284 28.9503 55.6339 28.604 55.8469 28.3079C56.0621 28.0117 56.3572 27.7805 56.7322 27.6143C57.1072 27.4482 57.5334 27.3651 58.0107 27.3651C58.4964 27.3651 58.9205 27.4482 59.2827 27.6143C59.647 27.7805 59.9304 28.0117 60.1328 28.3079C60.3352 28.604 60.4396 28.9471 60.446 29.337H59.1197ZM62.8502 27.4545V34H61.4664V27.4545H62.8502ZM63.9888 34V27.4545H66.5712C67.0676 27.4545 67.4906 27.5494 67.84 27.739C68.1895 27.9265 68.4558 28.1875 68.639 28.522C68.8244 28.8544 68.9171 29.2379 68.9171 29.6726C68.9171 30.1072 68.8233 30.4908 68.6358 30.8232C68.4483 31.1555 68.1767 31.4144 67.8208 31.5998C67.4672 31.7852 67.0389 31.8778 66.536 31.8778H64.8901V30.7688H66.3123C66.5787 30.7688 66.7981 30.723 66.9707 30.6314C67.1454 30.5376 67.2754 30.4087 67.3606 30.2447C67.448 30.0785 67.4917 29.8878 67.4917 29.6726C67.4917 29.4553 67.448 29.2656 67.3606 29.1037C67.2754 28.9396 67.1454 28.8129 66.9707 28.7234C66.796 28.6317 66.5744 28.5859 66.3059 28.5859H65.3727V34H63.9888ZM69.816 34V27.4545H72.3983C72.8948 27.4545 73.3177 27.5494 73.6672 27.739C74.0166 27.9265 74.2829 28.1875 74.4662 28.522C74.6515 28.8544 74.7442 29.2379 74.7442 29.6726C74.7442 30.1072 74.6505 30.4908 74.463 30.8232C74.2755 31.1555 74.0038 31.4144 73.648 31.5998C73.2943 31.7852 72.866 31.8778 72.3632 31.8778H70.7172V30.7688H72.1395C72.4058 30.7688 72.6253 30.723 72.7979 30.6314C72.9726 30.5376 73.1025 30.4087 73.1878 30.2447C73.2751 30.0785 73.3188 29.8878 73.3188 29.6726C73.3188 29.4553 73.2751 29.2656 73.1878 29.1037C73.1025 28.9396 72.9726 28.8129 72.7979 28.7234C72.6231 28.6317 72.4015 28.5859 72.1331 28.5859H71.1998V34H69.816ZM75.6431 34V27.4545H80.0536V28.5955H77.027V30.1552H79.8267V31.2962H77.027V32.859H80.0664V34H75.6431ZM81.1539 34V27.4545H83.7362C84.2306 27.4545 84.6524 27.543 85.0019 27.7198C85.3534 27.8945 85.6208 28.1428 85.8041 28.4645C85.9894 28.7841 86.0821 29.1602 86.0821 29.5927C86.0821 30.0273 85.9884 30.4013 85.8009 30.7145C85.6134 31.0256 85.3417 31.2642 84.9859 31.4304C84.6322 31.5966 84.2039 31.6797 83.7011 31.6797H81.972V30.5675H83.4774C83.7416 30.5675 83.961 30.5312 84.1357 30.4588C84.3105 30.3864 84.4404 30.2777 84.5257 30.1328C84.613 29.9879 84.6567 29.8079 84.6567 29.5927C84.6567 29.3754 84.613 29.1921 84.5257 29.043C84.4404 28.8938 84.3094 28.7809 84.1325 28.7042C83.9578 28.6254 83.7373 28.5859 83.471 28.5859H82.5377V34H81.1539ZM84.6887 31.0213L86.3154 34H84.7877L83.1961 31.0213H84.6887ZM59.9091 42.5703C59.8643 42.4148 59.8015 42.2773 59.7205 42.158C59.6396 42.0366 59.5405 41.9343 59.4233 41.8512C59.3082 41.766 59.1761 41.701 59.027 41.6562C58.88 41.6115 58.717 41.5891 58.538 41.5891C58.2035 41.5891 57.9094 41.6722 57.6559 41.8384C57.4045 42.0046 57.2085 42.2464 57.0678 42.5639C56.9272 42.8793 56.8569 43.2649 56.8569 43.7209C56.8569 44.1768 56.9261 44.5646 57.0646 44.8842C57.2031 45.2038 57.3991 45.4478 57.6527 45.6161C57.9062 45.7823 58.2056 45.8654 58.5508 45.8654C58.864 45.8654 59.1314 45.81 59.353 45.6992C59.5767 45.5863 59.7472 45.4276 59.8643 45.223C59.9837 45.0185 60.0433 44.7766 60.0433 44.4975L60.3246 44.5391H58.6371V43.4972H61.3761V44.3217C61.3761 44.897 61.2546 45.3913 61.0117 45.8047C60.7688 46.2159 60.4343 46.5334 60.0082 46.7571C59.582 46.9787 59.0941 47.0895 58.5444 47.0895C57.9308 47.0895 57.3917 46.9542 56.9272 46.6836C56.4627 46.4109 56.1005 46.0241 55.8406 45.5234C55.5827 45.0206 55.4538 44.424 55.4538 43.7337C55.4538 43.2031 55.5305 42.7301 55.6839 42.3146C55.8395 41.897 56.0568 41.5433 56.3359 41.2536C56.6151 40.9638 56.94 40.7433 57.3107 40.592C57.6815 40.4407 58.0831 40.3651 58.5156 40.3651C58.8864 40.3651 59.2315 40.4194 59.5511 40.5281C59.8707 40.6346 60.1541 40.7859 60.4013 40.9819C60.6506 41.1779 60.854 41.4112 61.0117 41.6818C61.1694 41.9503 61.2706 42.2464 61.3153 42.5703H59.9091ZM62.4156 47V40.4545H63.7994V45.859H66.6056V47H62.4156ZM68.8172 47H67.3343L69.5938 40.4545H71.3772L73.6336 47H72.1507L70.5111 41.9503H70.46L68.8172 47ZM68.7245 44.4272H72.2274V45.5075H68.7245V44.4272ZM77.8228 42.337C77.7972 42.0792 77.6875 41.8789 77.4936 41.7362C77.2997 41.5934 77.0366 41.522 76.7042 41.522C76.4783 41.522 76.2876 41.554 76.1321 41.6179C75.9766 41.6797 75.8572 41.766 75.7741 41.8768C75.6932 41.9876 75.6527 42.1133 75.6527 42.2539C75.6484 42.3711 75.6729 42.4734 75.7262 42.5607C75.7816 42.6481 75.8572 42.7237 75.9531 42.7876C76.049 42.8494 76.1598 42.9038 76.2855 42.9506C76.4112 42.9954 76.5455 43.0337 76.6882 43.0657L77.2763 43.2063C77.5618 43.2702 77.8239 43.3555 78.0625 43.462C78.3011 43.5685 78.5078 43.6996 78.6825 43.8551C78.8572 44.0107 78.9925 44.1939 79.0884 44.4048C79.1864 44.6158 79.2365 44.8576 79.2386 45.1303C79.2365 45.5309 79.1342 45.8782 78.9318 46.1722C78.7315 46.4641 78.4418 46.6911 78.0625 46.853C77.6854 47.0128 77.2305 47.0927 76.6978 47.0927C76.1694 47.0927 75.7092 47.0117 75.3171 46.8498C74.9272 46.6879 74.6225 46.4482 74.4031 46.1307C74.1857 45.8111 74.0717 45.4158 74.0611 44.945H75.4002C75.4151 45.1644 75.478 45.3477 75.5888 45.4947C75.7017 45.6396 75.8519 45.7493 76.0394 45.8239C76.229 45.8963 76.4432 45.9325 76.6818 45.9325C76.9162 45.9325 77.1197 45.8984 77.2923 45.8303C77.467 45.7621 77.6023 45.6673 77.6982 45.5458C77.794 45.4244 77.842 45.2848 77.842 45.1271C77.842 44.9801 77.7983 44.8565 77.7109 44.7564C77.6257 44.6562 77.5 44.571 77.3338 44.5007C77.1697 44.4304 76.9684 44.3665 76.7298 44.3089L76.017 44.13C75.4652 43.9957 75.0295 43.7859 74.7099 43.5004C74.3903 43.2148 74.2315 42.8303 74.2337 42.3466C74.2315 41.9503 74.337 41.604 74.5501 41.3079C74.7653 41.0117 75.0604 40.7805 75.4354 40.6143C75.8104 40.4482 76.2365 40.3651 76.7138 40.3651C77.1996 40.3651 77.6236 40.4482 77.9858 40.6143C78.3501 40.7805 78.6335 41.0117 78.8359 41.3079C79.0384 41.604 79.1428 41.9471 79.1491 42.337H77.8228ZM83.7203 42.337C83.6947 42.0792 83.585 41.8789 83.3911 41.7362C83.1972 41.5934 82.934 41.522 82.6017 41.522C82.3758 41.522 82.1851 41.554 82.0296 41.6179C81.874 41.6797 81.7547 41.766 81.6716 41.8768C81.5906 41.9876 81.5502 42.1133 81.5502 42.2539C81.5459 42.3711 81.5704 42.4734 81.6237 42.5607C81.6791 42.6481 81.7547 42.7237 81.8506 42.7876C81.9465 42.8494 82.0573 42.9038 82.183 42.9506C82.3087 42.9954 82.4429 43.0337 82.5857 43.0657L83.1737 43.2063C83.4593 43.2702 83.7213 43.3555 83.96 43.462C84.1986 43.5685 84.4053 43.6996 84.58 43.8551C84.7547 44.0107 84.89 44.1939 84.9859 44.4048C85.0839 44.6158 85.134 44.8576 85.1361 45.1303C85.134 45.5309 85.0317 45.8782 84.8293 46.1722C84.629 46.4641 84.3392 46.6911 83.96 46.853C83.5828 47.0128 83.1279 47.0927 82.5953 47.0927C82.0669 47.0927 81.6066 47.0117 81.2146 46.8498C80.8247 46.6879 80.52 46.4482 80.3005 46.1307C80.0832 45.8111 79.9692 45.4158 79.9585 44.945H81.2977C81.3126 45.1644 81.3754 45.3477 81.4862 45.4947C81.5992 45.6396 81.7494 45.7493 81.9369 45.8239C82.1265 45.8963 82.3406 45.9325 82.5793 45.9325C82.8137 45.9325 83.0171 45.8984 83.1897 45.8303C83.3644 45.7621 83.4997 45.6673 83.5956 45.5458C83.6915 45.4244 83.7394 45.2848 83.7394 45.1271C83.7394 44.9801 83.6958 44.8565 83.6084 44.7564C83.5232 44.6562 83.3975 44.571 83.2313 44.5007C83.0672 44.4304 82.8659 44.3665 82.6272 44.3089L81.9145 44.13C81.3627 43.9957 80.9269 43.7859 80.6073 43.5004C80.2877 43.2148 80.129 42.8303 80.1311 42.3466C80.129 41.9503 80.2345 41.604 80.4475 41.3079C80.6627 41.0117 80.9578 40.7805 81.3328 40.6143C81.7078 40.4482 82.134 40.3651 82.6112 40.3651C83.097 40.3651 83.521 40.4482 83.8833 40.6143C84.2476 40.7805 84.531 41.0117 84.7334 41.3079C84.9358 41.604 85.0402 41.9471 85.0466 42.337H83.7203Z" fill="white"/>
</g>
<defs>
<filter id="filter0_dd_112_59" x="0.2" y="0" width="143.6" height="76.8" filterUnits="userSpaceOnUse" color-interpolation-filters="sRGB">
<feFlood flood-opacity="0" result="BackgroundImageFix"/>
<feColorMatrix in="SourceAlpha" type="matrix" values="0 0 0 0 0 0 0 0 0 0 0 0 0 0 0 0 0 0 127 0" result="hardAlpha"/>
<feOffset dy="3"/>
<feGaussianBlur stdDeviation="3.4"/>
<feComposite in2="hardAlpha" operator="out"/>
<feColorMatrix type="matrix" values="0 0 0 0 0 0 0 0 0 0 0 0 0 0 0 0 0 0 0.25 0"/>
<feBlend mode="normal" in2="BackgroundImageFix" result="effect1_dropShadow_112_59"/>
<feColorMatrix in="SourceAlpha" type="matrix" values="0 0 0 0 0 0 0 0 0 0 0 0 0 0 0 0 0 0 127 0" result="hardAlpha"/>
<feOffset dy="-3"/>
<feGaussianBlur stdDeviation="2"/>
<feComposite in2="hardAlpha" operator="out"/>
<feColorMatrix type="matrix" values="0 0 0 0 0 0 0 0 0 0 0 0 0 0 0 0 0 0 0.25 0"/>
<feBlend mode="normal" in2="effect1_dropShadow_112_59" result="effect2_dropShadow_112_59"/>
<feBlend mode="normal" in="SourceGraphic" in2="effect2_dropShadow_112_59" result="shape"/>
</filter>
</defs>
</svg>
