<svg width="144" height="77" viewBox="0 0 144 77" fill="none" xmlns="http://www.w3.org/2000/svg">
<g filter="url(#filter0_dd_112_55)">
<rect x="7" y="7" width="130" height="60" rx="12" fill="#DC2827" shape-rendering="crispEdges"/>
<path d="M26.3622 50.4054C25.8408 50.4054 25.3912 50.1748 25.0131 49.7135C24.6351 49.2523 24.4205 48.6641 24.3694 47.9492L22.3513 22.7297H40.5135L38.4955 47.9492C38.445 48.6641 38.2305 49.2523 37.8517 49.7135C37.473 50.1748 37.0233 50.4054 36.5027 50.4054H26.3622ZM25.3333 44.502L25.6667 48.6667H37.3333L37.6667 44.6667L25.3333 44.502ZM25.3333 42.6667H37.8517L39.3333 24H23.6667L25.3333 42.6667Z" fill="white"/>
<path d="M55.3196 28.5955V27.4545H60.6953V28.5955H58.6914V34H57.3235V28.5955H55.3196ZM61.909 34H60.426L62.6856 27.4545H64.469L66.7254 34H65.2425L63.6029 28.9503H63.5518L61.909 34ZM61.8163 31.4272H65.3192V32.5075H61.8163V31.4272ZM67.5132 27.4545H69.2199L71.0225 31.8523H71.0992L72.9017 27.4545H74.6084V34H73.2661V29.7397H73.2117L71.5178 33.968H70.6038L68.9099 29.7237H68.8556V34H67.5132V27.4545ZM75.7486 34V27.4545H78.331C78.8274 27.4545 79.2504 27.5494 79.5998 27.739C79.9492 27.9265 80.2156 28.1875 80.3988 28.522C80.5842 28.8544 80.6768 29.2379 80.6768 29.6726C80.6768 30.1072 80.5831 30.4908 80.3956 30.8232C80.2081 31.1555 79.9364 31.4144 79.5806 31.5998C79.2269 31.7852 78.7987 31.8778 78.2958 31.8778H76.6499V30.7688H78.0721C78.3384 30.7688 78.5579 30.723 78.7305 30.6314C78.9052 30.5376 79.0352 30.4087 79.1204 30.2447C79.2077 30.0785 79.2514 29.8878 79.2514 29.6726C79.2514 29.4553 79.2077 29.2656 79.1204 29.1037C79.0352 28.9396 78.9052 28.8129 78.7305 28.7234C78.5558 28.6317 78.3342 28.5859 78.0657 28.5859H77.1325V34H75.7486ZM81.5757 34V27.4545H85.9862V28.5955H82.9596V30.1552H85.7593V31.2962H82.9596V32.859H85.999V34H81.5757ZM87.0865 34V27.4545H89.6689C90.1632 27.4545 90.585 27.543 90.9345 27.7198C91.286 27.8945 91.5534 28.1428 91.7367 28.4645C91.9221 28.7841 92.0147 29.1602 92.0147 29.5927C92.0147 30.0273 91.921 30.4013 91.7335 30.7145C91.546 31.0256 91.2743 31.2642 90.9185 31.4304C90.5648 31.5966 90.1365 31.6797 89.6337 31.6797H87.9047V30.5675H89.41C89.6742 30.5675 89.8936 30.5312 90.0684 30.4588C90.2431 30.3864 90.373 30.2777 90.4583 30.1328C90.5456 29.9879 90.5893 29.8079 90.5893 29.5927C90.5893 29.3754 90.5456 29.1921 90.4583 29.043C90.373 28.8938 90.242 28.7809 90.0652 28.7042C89.8904 28.6254 89.6699 28.5859 89.4036 28.5859H88.4703V34H87.0865ZM90.6213 31.0213L92.248 34H90.7203L89.1287 31.0213H90.6213ZM95.0757 34V27.4545H99.4862V28.5955H96.4596V30.1552H99.2593V31.2962H96.4596V32.859H99.499V34H95.0757ZM101.769 27.4545L103.351 32.4276H103.412L104.997 27.4545H106.531L104.275 34H102.491L100.232 27.4545H101.769ZM108.703 27.4545V34H107.319V27.4545H108.703ZM112.162 34H109.841V27.4545H112.181C112.839 27.4545 113.406 27.5856 113.881 27.8477C114.356 28.1076 114.722 28.4815 114.977 28.9695C115.235 29.4574 115.364 30.0412 115.364 30.7209C115.364 31.4027 115.235 31.9886 114.977 32.4787C114.722 32.9687 114.354 33.3448 113.875 33.6069C113.397 33.869 112.826 34 112.162 34ZM111.225 32.8143H112.104C112.513 32.8143 112.857 32.7418 113.136 32.5969C113.418 32.4499 113.629 32.223 113.769 31.9162C113.912 31.6072 113.983 31.2088 113.983 30.7209C113.983 30.2372 113.912 29.842 113.769 29.5352C113.629 29.2283 113.419 29.0025 113.14 28.8576C112.861 28.7127 112.516 28.6403 112.107 28.6403H111.225V32.8143ZM116.389 34V27.4545H120.8V28.5955H117.773V30.1552H120.573V31.2962H117.773V32.859H120.812V34H116.389ZM127.375 27.4545V34H126.179L123.332 29.8803H123.284V34H121.9V27.4545H123.114L125.94 31.571H125.997V27.4545H127.375ZM128.269 28.5955V27.4545H133.645V28.5955H131.641V34H130.273V28.5955H128.269ZM55.5689 47V40.4545H58.1513C58.6456 40.4545 59.0675 40.543 59.4169 40.7198C59.7685 40.8945 60.0359 41.1428 60.2191 41.4645C60.4045 41.7841 60.4972 42.1602 60.4972 42.5927C60.4972 43.0273 60.4034 43.4013 60.2159 43.7145C60.0284 44.0256 59.7567 44.2642 59.4009 44.4304C59.0472 44.5966 58.619 44.6797 58.1161 44.6797H56.3871V43.5675H57.8924C58.1566 43.5675 58.3761 43.5312 58.5508 43.4588C58.7255 43.3864 58.8555 43.2777 58.9407 43.1328C59.0281 42.9879 59.0717 42.8079 59.0717 42.5927C59.0717 42.3754 59.0281 42.1921 58.9407 42.043C58.8555 41.8938 58.7244 41.7809 58.5476 41.7042C58.3729 41.6254 58.1523 41.5859 57.886 41.5859H56.9528V47H55.5689ZM59.1037 44.0213L60.7305 47H59.2028L57.6112 44.0213H59.1037ZM61.4751 47V40.4545H65.8857V41.5955H62.859V43.1552H65.6587V44.2962H62.859V45.859H65.8984V47H61.4751ZM72.7611 42.7461H71.3612C71.3357 42.565 71.2835 42.4041 71.2046 42.2635C71.1258 42.1207 71.0246 41.9993 70.901 41.8991C70.7774 41.799 70.6347 41.7223 70.4727 41.669C70.3129 41.6158 70.1393 41.5891 69.9518 41.5891C69.613 41.5891 69.3179 41.6733 69.0665 41.8416C68.8151 42.0078 68.6201 42.2507 68.4816 42.5703C68.3431 42.8878 68.2739 43.2734 68.2739 43.7273C68.2739 44.1939 68.3431 44.5859 68.4816 44.9034C68.6222 45.2209 68.8183 45.4606 69.0697 45.6225C69.3211 45.7844 69.6119 45.8654 69.9422 45.8654C70.1276 45.8654 70.2991 45.8409 70.4568 45.7919C70.6166 45.7429 70.7583 45.6715 70.8818 45.5778C71.0054 45.4819 71.1077 45.3658 71.1887 45.2294C71.2718 45.093 71.3293 44.9375 71.3612 44.7628L72.7611 44.7692C72.7249 45.0696 72.6343 45.3594 72.4894 45.6385C72.3467 45.9155 72.1539 46.1637 71.911 46.3832C71.6702 46.6005 71.3825 46.7731 71.048 46.9009C70.7156 47.0266 70.3396 47.0895 69.9198 47.0895C69.336 47.0895 68.814 46.9574 68.3538 46.6932C67.8957 46.429 67.5335 46.0465 67.2671 45.5458C67.0029 45.0451 66.8708 44.4389 66.8708 43.7273C66.8708 43.0135 67.0051 42.4062 67.2735 41.9055C67.542 41.4048 67.9063 41.0234 68.3666 40.7614C68.8268 40.4972 69.3445 40.3651 69.9198 40.3651C70.2991 40.3651 70.6507 40.4183 70.9745 40.5249C71.3005 40.6314 71.5892 40.7869 71.8406 40.9915C72.0921 41.1939 72.2966 41.4421 72.4543 41.7362C72.6141 42.0302 72.7164 42.3668 72.7611 42.7461ZM73.5042 41.5955V40.4545H78.8799V41.5955H76.876V47H75.5081V41.5955H73.5042ZM80.0936 47H78.6106L80.8702 40.4545H82.6536L84.91 47H83.427L81.7875 41.9503H81.7363L80.0936 47ZM80.0009 44.4272H83.5037V45.5075H80.0009V44.4272ZM91.1726 40.4545V47H89.9773L87.1296 42.8803H87.0817V47H85.6978V40.4545H86.9123L89.7376 44.571H89.7951V40.4545H91.1726ZM96.6562 42.5703C96.6114 42.4148 96.5486 42.2773 96.4676 42.158C96.3866 42.0366 96.2876 41.9343 96.1704 41.8512C96.0553 41.766 95.9232 41.701 95.7741 41.6562C95.627 41.6115 95.464 41.5891 95.2851 41.5891C94.9506 41.5891 94.6565 41.6722 94.403 41.8384C94.1515 42.0046 93.9555 42.2464 93.8149 42.5639C93.6743 42.8793 93.604 43.2649 93.604 43.7209C93.604 44.1768 93.6732 44.5646 93.8117 44.8842C93.9502 45.2038 94.1462 45.4478 94.3998 45.6161C94.6533 45.7823 94.9527 45.8654 95.2979 45.8654C95.6111 45.8654 95.8785 45.81 96.1001 45.6992C96.3238 45.5863 96.4942 45.4276 96.6114 45.223C96.7307 45.0185 96.7904 44.7766 96.7904 44.4975L97.0716 44.5391H95.3841V43.4972H98.1231V44.3217C98.1231 44.897 98.0017 45.3913 97.7588 45.8047C97.5159 46.2159 97.1814 46.5334 96.7552 46.7571C96.3291 46.9787 95.8412 47.0895 95.2915 47.0895C94.6778 47.0895 94.1388 46.9542 93.6743 46.6836C93.2098 46.4109 92.8476 46.0241 92.5876 45.5234C92.3298 45.0206 92.2009 44.424 92.2009 43.7337C92.2009 43.2031 92.2776 42.7301 92.431 42.3146C92.5866 41.897 92.8039 41.5433 93.083 41.2536C93.3621 40.9638 93.6871 40.7433 94.0578 40.592C94.4285 40.4407 94.8302 40.3651 95.2627 40.3651C95.6334 40.3651 95.9786 40.4194 96.2982 40.5281C96.6178 40.6346 96.9012 40.7859 97.1483 40.9819C97.3976 41.1779 97.6011 41.4112 97.7588 41.6818C97.9165 41.9503 98.0177 42.2464 98.0624 42.5703H96.6562ZM103.206 40.4545H104.589V44.7053C104.589 45.1825 104.475 45.6001 104.248 45.9581C104.022 46.3161 103.705 46.5952 103.298 46.7955C102.891 46.9936 102.417 47.0927 101.876 47.0927C101.333 47.0927 100.858 46.9936 100.451 46.7955C100.044 46.5952 99.7273 46.3161 99.5014 45.9581C99.2756 45.6001 99.1626 45.1825 99.1626 44.7053V40.4545H100.547V44.587C100.547 44.8363 100.601 45.0579 100.71 45.2518C100.82 45.4457 100.976 45.598 101.176 45.7088C101.376 45.8196 101.61 45.875 101.876 45.875C102.145 45.875 102.378 45.8196 102.576 45.7088C102.776 45.598 102.931 45.4457 103.039 45.2518C103.15 45.0579 103.206 44.8363 103.206 44.587V40.4545ZM105.728 47V40.4545H107.112V45.859H109.918V47H105.728ZM112.13 47H110.647L112.906 40.4545H114.69L116.946 47H115.463L113.824 41.9503H113.772L112.13 47ZM112.037 44.4272H115.54V45.5075H112.037V44.4272ZM117.734 47V40.4545H120.316C120.811 40.4545 121.233 40.543 121.582 40.7198C121.934 40.8945 122.201 41.1428 122.384 41.4645C122.57 41.7841 122.662 42.1602 122.662 42.5927C122.662 43.0273 122.568 43.4013 122.381 43.7145C122.193 44.0256 121.922 44.2642 121.566 44.4304C121.212 44.5966 120.784 44.6797 120.281 44.6797H118.552V43.5675H120.057C120.322 43.5675 120.541 43.5312 120.716 43.4588C120.891 43.3864 121.021 43.2777 121.106 43.1328C121.193 42.9879 121.237 42.8079 121.237 42.5927C121.237 42.3754 121.193 42.1921 121.106 42.043C121.021 41.8938 120.889 41.7809 120.713 41.7042C120.538 41.6254 120.317 41.5859 120.051 41.5859H119.118V47H117.734ZM121.269 44.0213L122.896 47H121.368L119.776 44.0213H121.269Z" fill="white"/>
</g>
<defs>
<filter id="filter0_dd_112_55" x="0.2" y="0" width="143.6" height="76.8" filterUnits="userSpaceOnUse" color-interpolation-filters="sRGB">
<feFlood flood-opacity="0" result="BackgroundImageFix"/>
<feColorMatrix in="SourceAlpha" type="matrix" values="0 0 0 0 0 0 0 0 0 0 0 0 0 0 0 0 0 0 127 0" result="hardAlpha"/>
<feOffset dy="3"/>
<feGaussianBlur stdDeviation="3.4"/>
<feComposite in2="hardAlpha" operator="out"/>
<feColorMatrix type="matrix" values="0 0 0 0 0 0 0 0 0 0 0 0 0 0 0 0 0 0 0.25 0"/>
<feBlend mode="normal" in2="BackgroundImageFix" result="effect1_dropShadow_112_55"/>
<feColorMatrix in="SourceAlpha" type="matrix" values="0 0 0 0 0 0 0 0 0 0 0 0 0 0 0 0 0 0 127 0" result="hardAlpha"/>
<feOffset dy="-3"/>
<feGaussianBlur stdDeviation="2"/>
<feComposite in2="hardAlpha" operator="out"/>
<feColorMatrix type="matrix" values="0 0 0 0 0 0 0 0 0 0 0 0 0 0 0 0 0 0 0.25 0"/>
<feBlend mode="normal" in2="effect1_dropShadow_112_55" result="effect2_dropShadow_112_55"/>
<feBlend mode="normal" in="SourceGraphic" in2="effect2_dropShadow_112_55" result="shape"/>
</filter>
</defs>
</svg>
