<svg width="48" height="48" viewBox="0 0 48 48" fill="none" xmlns="http://www.w3.org/2000/svg">
<path d="M4.5 36.75C4.5 38.5402 5.21116 40.2571 6.47703 41.523C7.7429 42.7888 9.45979 43.5 11.25 43.5H36.75C38.5402 43.5 40.2571 42.7888 41.523 41.523C42.7888 40.2571 43.5 38.5402 43.5 36.75V19.5C43.5 19.1022 43.342 18.7206 43.0607 18.4393C42.7794 18.158 42.3978 18 42 18C41.6022 18 41.2206 18.158 40.9393 18.4393C40.658 18.7206 40.5 19.1022 40.5 19.5V36.75C40.5 37.7446 40.1049 38.6984 39.4016 39.4017C38.6984 40.1049 37.7446 40.5 36.75 40.5H11.25C10.2554 40.5 9.30161 40.1049 8.59835 39.4017C7.89509 38.6984 7.5 37.7446 7.5 36.75V19.5C7.5 19.1022 7.34196 18.7206 7.06066 18.4393C6.77936 18.158 6.39782 18 6 18C5.60218 18 5.22064 18.158 4.93934 18.4393C4.65804 18.7206 4.5 19.1022 4.5 19.5V36.75ZM12.4395 13.9395C12.2962 14.0779 12.182 14.2434 12.1033 14.4264C12.0247 14.6094 11.9834 14.8062 11.9816 15.0054C11.9799 15.2046 12.0178 15.4021 12.0933 15.5864C12.1687 15.7708 12.2801 15.9383 12.4209 16.0791C12.5617 16.2199 12.7292 16.3313 12.9136 16.4067C13.0979 16.4822 13.2954 16.5201 13.4946 16.5184C13.6938 16.5166 13.8906 16.4753 14.0736 16.3967C14.2566 16.318 14.4221 16.2038 14.5605 16.0605L22.5 8.121V31.5C22.5 31.8978 22.658 32.2794 22.9393 32.5607C23.2206 32.842 23.6022 33 24 33C24.3978 33 24.7794 32.842 25.0607 32.5607C25.342 32.2794 25.5 31.8978 25.5 31.5V8.121L33.4395 16.0605C33.7224 16.3337 34.1013 16.4849 34.4946 16.4815C34.8879 16.4781 35.2641 16.3203 35.5422 16.0422C35.8203 15.7641 35.9781 15.3879 35.9815 14.9946C35.9849 14.6013 35.8337 14.2224 35.5605 13.9395L25.0605 3.4395C24.7792 3.15829 24.3977 3.00032 24 3.00032C23.6023 3.00032 23.2208 3.15829 22.9395 3.4395L12.4395 13.9395Z" fill="#DC2827"/>
</svg>
