<svg width="10" height="14" viewBox="0 0 10 14" fill="none" xmlns="http://www.w3.org/2000/svg">
<path d="M9.25684 4.44727V4.45605C9.25684 4.99219 9.10742 5.4668 8.81738 5.87988C8.52734 6.29297 8.11426 6.60059 7.58691 6.80273C9.05469 7.2334 9.78418 8.16504 9.78418 9.59766V9.93164C9.78418 11.1006 9.43262 11.9883 8.7207 12.5947C8.00879 13.2012 6.85742 13.5 5.2666 13.5H0.766602C0.379883 13.5 0.186523 13.3066 0.186523 12.9199V1.47656C0.186523 1.08984 0.379883 0.896484 0.766602 0.896484H5.01172C7.8418 0.896484 9.25684 1.96875 9.25684 4.10449V4.44727ZM6.68164 4.25391L6.67285 4.2627C6.67285 3.80566 6.53223 3.48047 6.25098 3.28711C5.96973 3.09375 5.52148 2.99707 4.89746 2.99707H2.87598V6.09082H4.71289C5.33691 6.09082 5.82031 5.95898 6.16309 5.69531C6.50586 5.43164 6.68164 5.0625 6.68164 4.59668V4.25391ZM7.09473 9.51855H7.08594C7.08594 8.98242 6.91895 8.58691 6.58496 8.34082C6.25098 8.09473 5.6709 7.97168 4.83594 7.97168H2.86719V11.4258H5.01172C5.76758 11.4258 6.30371 11.3027 6.62012 11.0566C6.93652 10.8105 7.09473 10.415 7.09473 9.86133V9.51855Z" fill="black"/>
</svg>
