<svg width="32" height="32" viewBox="0 0 32 32" fill="none" xmlns="http://www.w3.org/2000/svg">
<path d="M6 16C6 13.3478 7.05357 10.8043 8.92893 8.92893C10.8043 7.05357 13.3478 6 16 6C18.6522 6 21.1957 7.05357 23.0711 8.92893C24.9464 10.8043 26 13.3478 26 16C26 18.6522 24.9464 21.1957 23.0711 23.0711C21.1957 24.9464 18.6522 26 16 26C13.3478 26 10.8043 24.9464 8.92893 23.0711C7.05357 21.1957 6 18.6522 6 16ZM16 7.33333C13.7015 7.33333 11.4971 8.24643 9.87174 9.87174C8.24643 11.4971 7.33333 13.7015 7.33333 16C7.33333 18.2985 8.24643 20.5029 9.87174 22.1283C11.4971 23.7536 13.7015 24.6667 16 24.6667C18.2985 24.6667 20.5029 23.7536 22.1283 22.1283C23.7536 20.5029 24.6667 18.2985 24.6667 16C24.6667 13.7015 23.7536 11.4971 22.1283 9.87174C20.5029 8.24643 18.2985 7.33333 16 7.33333Z" fill="black"/>
</svg>
