<svg width="24" height="24" viewBox="0 0 24 24" fill="none" xmlns="http://www.w3.org/2000/svg">
<path d="M4.2001 2.40039C4.04097 2.40039 3.88836 2.4636 3.77583 2.57613C3.66331 2.68865 3.6001 2.84126 3.6001 3.00039V21.0004C3.6001 21.1595 3.66331 21.3121 3.77583 21.4247C3.88836 21.5372 4.04097 21.6004 4.2001 21.6004C4.35923 21.6004 4.51184 21.5372 4.62436 21.4247C4.73688 21.3121 4.8001 21.1595 4.8001 21.0004V3.00039C4.8001 2.84126 4.73688 2.68865 4.62436 2.57613C4.51184 2.4636 4.35923 2.40039 4.2001 2.40039ZM8.4001 13.2004C7.76358 13.2004 7.15313 13.4532 6.70304 13.9033C6.25295 14.3534 6.0001 14.9639 6.0001 15.6004V16.8004C6.0001 17.4369 6.25295 18.0474 6.70304 18.4974C7.15313 18.9475 7.76358 19.2004 8.4001 19.2004H14.4001C15.0366 19.2004 15.6471 18.9475 16.0972 18.4974C16.5472 18.0474 16.8001 17.4369 16.8001 16.8004V15.6004C16.8001 14.9639 16.5472 14.3534 16.0972 13.9033C15.6471 13.4532 15.0366 13.2004 14.4001 13.2004H8.4001ZM6.0001 7.20039C6.0001 6.56387 6.25295 5.95342 6.70304 5.50333C7.15313 5.05325 7.76358 4.80039 8.4001 4.80039H18.0001C18.6366 4.80039 19.2471 5.05325 19.6972 5.50333C20.1472 5.95342 20.4001 6.56387 20.4001 7.20039V8.40039C20.4001 9.03691 20.1472 9.64736 19.6972 10.0974C19.2471 10.5475 18.6366 10.8004 18.0001 10.8004H8.4001C7.76358 10.8004 7.15313 10.5475 6.70304 10.0974C6.25295 9.64736 6.0001 9.03691 6.0001 8.40039V7.20039Z" fill="#7B7878"/>
</svg>
