<svg width="32" height="32" viewBox="0 0 32 32" fill="none" xmlns="http://www.w3.org/2000/svg">
<path d="M20.4801 15.0999V6.77988C20.4801 6.51988 20.249 5.99988 19.3245 5.99988C18.4001 5.99988 11.8519 5.99988 8.69334 5.99988C8.46223 5.99988 8 6.20788 8 7.03988C8 7.87189 8 18.7795 8 24.1292C8 24.4995 8.13867 25.24 8.69334 25.24C9.24801 25.24 14.8178 25.24 17.3601 25.24" stroke="black"/>
<path d="M18.6975 20.9879L18.2962 20.9078C16.3798 20.5252 15.1051 19.0198 15.2757 17.3795L15.7591 12.7399H22.6018L23.0843 17.3785C23.255 19.0189 21.9812 20.5251 20.0647 20.9078L19.6624 20.9879V24.9928H21.3899C21.6818 24.9928 21.8892 25.1126 22.0061 25.2604H16.3538C16.4707 25.1126 16.6781 24.9928 16.97 24.9928H18.6975V20.9879Z" fill="#FDA50F" stroke="black"/>
<rect x="12.68" y="24.2" width="4.16003" height="1.04001" rx="0.520003" fill="black"/>
</svg>
