<svg width="13" height="20" viewBox="0 0 13 20" fill="none" xmlns="http://www.w3.org/2000/svg">
<path d="M2.31611 2.45983V10.3258C2.31611 11.9338 2.66411 13.1038 3.36011 13.8358C4.06811 14.5678 5.02211 14.9338 6.22211 14.9338C7.39811 14.9338 8.32811 14.5678 9.01211 13.8358C9.69611 13.1038 10.0381 11.9338 10.0381 10.3258V2.45983H10.3981V10.3258C10.3981 12.0058 10.0261 13.2478 9.28211 14.0518C8.55011 14.8558 7.53011 15.2578 6.22211 15.2578C4.91411 15.2578 3.87611 14.8558 3.10811 14.0518C2.34011 13.2358 1.95611 11.9938 1.95611 10.3258V2.45983H2.31611Z" fill="black"/>
<path d="M9.922 17.1298V17.4538H3.37V17.1298H9.922Z" fill="black"/>
</svg>
